<?xml version="1.0" encoding="UTF-8"?>
<svg xmlns="http://www.w3.org/2000/svg" viewBox="0 0 1000 1000" width="1000" height="1000" fill="none">
  <path id="india-outline" d="M99.9 474.0 L100.9 475.0 L102.0 474.7 L102.9 475.3 L104.3 474.7 L106.5 470.6 L109.6 470.0 L111.0 467.7 L112.6 467.7 L112.2 469.8 L110.2 471.0 L106.7 476.0 L108.4 477.2 L106.7 479.4 L107.6 480.5 L108.8 479.7 L109.8 480.1 L110.4 481.3 L112.1 482.2 L112.0 483.5 L110.1 483.2 L109.6 484.6 L112.9 488.1 L127.6 497.4 L132.8 498.1 L135.2 499.3 L137.1 498.9 L141.7 500.4 L143.0 497.8 L145.7 496.5 L152.5 495.3 L153.7 494.2 L156.3 493.5 L159.7 494.9 L158.8 497.7 L154.0 505.9 L151.3 506.0 L149.8 504.7 L146.9 506.1 L146.9 508.2 L145.2 508.7 L144.3 509.9 L141.9 508.5 L140.5 509.2 L139.4 508.6 L138.5 509.0 L139.5 510.5 L139.0 511.5 L137.7 511.2 L136.5 509.6 L135.2 512.2 L133.7 512.9 L131.5 512.4 L131.1 513.4 L128.8 514.5 L126.7 513.1 L127.5 509.7 L124.5 510.1 L124.4 508.0 L122.4 509.2 L120.5 513.0 L120.9 514.9 L128.0 523.3 L141.5 535.8 L152.3 548.6 L161.2 555.7 L167.3 558.6 L168.3 558.0 L168.2 556.1 L170.0 552.6 L173.8 553.3 L174.2 554.9 L172.5 556.4 L173.5 557.2 L173.0 558.9 L173.5 560.1 L176.7 559.2 L178.4 559.5 L185.7 556.1 L188.9 555.5 L191.3 553.4 L197.9 551.0 L199.0 549.8 L207.5 545.7 L206.8 544.4 L207.4 542.6 L210.5 538.7 L212.7 533.2 L211.4 530.2 L211.4 525.5 L210.8 524.1 L212.0 523.2 L213.2 518.6 L214.9 517.5 L216.3 514.8 L217.3 515.1 L217.7 516.4 L218.6 515.1 L221.1 514.0 L222.7 514.6 L222.5 515.6 L219.9 516.7 L218.2 522.4 L218.2 525.2 L219.7 527.6 L218.7 531.6 L219.3 532.3 L220.9 531.6 L223.2 532.2 L220.9 534.6 L220.7 535.6 L222.3 537.4 L222.3 539.2 L220.5 543.5 L221.3 545.2 L221.5 549.0 L223.2 549.0 L224.2 549.9 L225.0 553.3 L227.8 558.7 L228.9 564.0 L227.3 569.6 L225.0 572.3 L224.6 577.6 L223.7 578.9 L224.1 581.3 L222.6 582.8 L223.0 584.3 L222.2 585.8 L223.0 586.6 L224.3 594.6 L225.2 595.6 L225.1 599.0 L226.0 600.3 L225.8 605.2 L227.0 607.2 L226.3 610.8 L227.5 612.0 L228.2 609.9 L229.9 610.0 L231.1 608.9 L231.9 610.0 L231.5 610.9 L230.4 610.7 L230.0 612.2 L229.2 612.7 L229.9 615.3 L228.0 615.9 L227.8 618.7 L229.6 623.0 L228.8 625.6 L229.4 628.6 L230.6 629.7 L230.0 630.6 L230.2 632.3 L231.2 633.4 L231.4 637.2 L235.3 646.7 L234.8 647.7 L235.8 650.5 L235.6 651.8 L236.9 653.8 L236.3 655.9 L237.8 657.4 L237.3 659.8 L239.5 664.5 L238.8 666.9 L239.7 668.2 L239.4 670.2 L240.9 678.1 L240.2 680.6 L243.7 690.5 L244.2 694.4 L245.7 697.8 L247.7 698.6 L249.0 700.4 L252.7 710.5 L253.9 711.7 L253.4 713.3 L256.0 714.6 L257.6 719.9 L257.2 722.2 L260.0 724.5 L260.3 726.8 L261.6 727.4 L262.4 728.9 L261.6 730.0 L262.1 730.6 L266.1 732.2 L267.8 738.1 L268.8 738.4 L269.9 740.8 L272.8 752.1 L275.8 756.7 L277.8 765.4 L278.2 771.0 L281.6 785.0 L290.6 804.2 L291.6 807.9 L292.1 808.8 L293.4 808.8 L296.5 813.1 L300.5 816.5 L303.4 823.6 L305.1 824.3 L306.6 826.9 L309.3 834.0 L311.4 842.7 L317.0 855.3 L321.0 868.1 L322.9 880.0 L329.0 895.4 L330.9 896.7 L340.7 909.6 L349.6 916.6 L356.4 918.0 L357.0 916.4 L361.6 915.3 L363.5 913.3 L370.4 909.9 L370.4 908.5 L372.2 906.4 L372.4 903.9 L371.8 902.4 L373.1 899.8 L374.1 899.3 L373.1 898.3 L373.2 895.9 L375.1 892.9 L379.9 889.4 L384.4 888.8 L386.5 888.1 L386.9 887.1 L388.3 887.2 L392.1 885.4 L400.6 884.7 L396.6 883.4 L394.2 881.1 L393.4 879.3 L395.5 873.3 L403.2 863.6 L402.3 862.2 L402.4 860.8 L404.0 857.5 L406.8 855.9 L415.9 857.1 L418.9 857.1 L420.2 856.2 L419.4 848.4 L419.0 827.2 L416.8 821.6 L416.8 819.5 L420.2 807.2 L427.7 795.7 L430.3 787.1 L430.5 782.7 L432.9 772.6 L432.4 768.8 L430.0 763.5 L430.1 757.8 L427.0 749.9 L426.9 746.7 L428.8 736.0 L427.9 735.2 L425.7 729.6 L424.7 722.0 L426.0 715.6 L428.9 711.2 L430.9 705.2 L435.7 701.3 L442.0 699.4 L445.2 700.3 L445.9 704.2 L449.0 704.1 L450.7 703.2 L450.8 700.8 L454.7 696.8 L456.7 690.1 L458.6 687.6 L461.5 686.3 L465.4 685.9 L470.4 687.2 L485.3 680.3 L486.9 678.4 L487.9 672.9 L488.0 671.8 L485.5 670.9 L485.0 670.0 L487.2 665.4 L495.2 658.9 L511.4 650.5 L521.1 638.4 L525.0 635.6 L536.4 629.7 L537.2 627.8 L542.6 622.7 L548.1 615.8 L549.0 613.5 L557.1 603.0 L571.7 591.8 L579.0 588.3 L597.6 582.2 L602.1 575.2 L606.1 573.3 L609.3 570.4 L607.7 568.3 L609.1 565.2 L615.8 560.5 L614.1 557.9 L613.9 555.6 L610.7 549.1 L610.3 546.1 L612.1 542.3 L618.1 536.7 L621.6 535.4 L625.5 535.5 L628.2 533.7 L636.6 531.2 L640.4 528.1 L642.7 524.8 L643.9 524.8 L645.8 523.0 L647.2 524.7 L644.4 528.7 L643.5 532.6 L646.1 533.1 L647.3 532.6 L649.2 535.1 L650.4 535.1 L652.0 533.1 L653.4 534.1 L654.8 533.4 L654.9 530.6 L655.7 529.8 L656.5 530.3 L657.0 532.6 L655.6 535.3 L656.9 535.7 L658.2 534.8 L658.8 532.8 L658.4 530.4 L659.7 529.9 L660.8 526.9 L661.9 528.0 L661.4 529.8 L662.6 532.2 L662.0 534.6 L664.6 534.5 L665.8 535.5 L667.0 535.4 L665.6 533.6 L666.2 532.5 L669.8 533.9 L672.3 532.9 L671.4 530.4 L670.4 530.3 L669.8 529.4 L670.6 526.3 L670.2 525.2 L671.5 524.1 L671.9 522.6 L670.6 519.6 L671.8 517.9 L669.5 512.2 L669.6 508.4 L668.1 505.1 L668.7 501.7 L667.6 499.7 L668.9 497.3 L666.2 493.3 L666.2 490.0 L669.5 486.1 L668.3 486.4 L664.5 485.1 L662.4 485.2 L662.1 483.8 L662.8 483.1 L664.2 477.8 L662.7 478.0 L661.6 477.3 L660.0 474.4 L658.9 474.4 L658.0 473.2 L658.8 467.3 L662.5 465.3 L662.6 463.6 L663.5 463.1 L661.6 457.9 L662.4 456.8 L662.6 454.7 L661.6 453.4 L658.6 453.3 L654.4 451.3 L651.5 451.1 L646.4 447.5 L643.0 442.7 L647.0 436.8 L646.5 435.1 L647.1 434.2 L648.7 434.0 L649.7 435.9 L651.4 436.6 L651.7 434.6 L653.4 434.3 L654.8 431.4 L655.3 426.4 L658.2 427.2 L659.3 426.4 L661.6 426.3 L664.4 427.4 L665.7 426.6 L667.7 427.6 L668.6 424.7 L670.0 424.2 L670.0 423.6 L667.8 423.2 L665.6 421.7 L664.6 417.0 L661.0 418.4 L659.1 417.1 L657.7 417.1 L655.0 414.5 L654.9 412.6 L653.7 412.3 L650.0 409.0 L649.8 408.1 L646.7 408.8 L645.4 407.7 L644.9 404.9 L646.5 401.9 L647.5 401.6 L647.4 398.0 L652.0 395.6 L652.4 393.3 L654.8 391.4 L656.8 390.9 L655.7 388.2 L652.2 387.0 L652.8 384.7 L653.8 384.6 L657.6 388.4 L660.2 389.3 L661.5 391.8 L662.9 392.0 L663.2 393.1 L664.4 393.1 L665.7 395.1 L666.6 395.1 L666.2 394.1 L666.9 393.4 L668.0 393.6 L668.7 394.8 L671.3 394.8 L672.8 393.8 L674.5 398.4 L676.2 398.7 L676.9 400.4 L679.7 402.1 L681.2 401.6 L684.3 402.4 L685.0 403.4 L685.7 403.0 L686.0 401.2 L687.6 400.2 L686.4 398.2 L686.8 397.1 L688.1 396.5 L688.7 397.5 L690.4 397.8 L693.0 402.5 L692.5 404.1 L693.6 404.8 L692.1 407.9 L694.0 413.7 L693.7 417.6 L692.3 421.0 L692.6 423.7 L696.2 423.6 L700.4 425.8 L706.4 426.9 L709.6 428.3 L713.4 427.3 L720.5 427.9 L726.8 426.7 L732.0 426.6 L737.5 428.6 L740.5 427.8 L742.2 428.9 L745.4 427.5 L753.7 426.9 L763.4 431.7 L763.8 433.6 L765.5 434.9 L765.4 436.1 L762.9 436.9 L760.5 435.4 L758.6 435.3 L758.6 437.2 L759.9 439.3 L759.8 441.0 L758.2 446.7 L756.2 447.0 L756.2 449.4 L755.3 451.1 L753.9 451.5 L751.9 451.0 L749.7 452.6 L750.3 454.8 L749.2 457.6 L747.9 457.0 L747.6 456.1 L746.7 456.3 L744.9 455.3 L745.1 458.0 L744.0 458.2 L742.3 456.3 L742.0 459.3 L740.8 460.3 L734.8 459.5 L735.3 461.3 L734.7 462.6 L732.2 463.3 L730.9 465.7 L731.5 467.6 L730.7 469.9 L729.2 470.1 L728.8 471.0 L729.4 472.7 L729.0 473.8 L732.3 480.3 L734.2 489.6 L734.9 490.7 L736.1 490.8 L735.2 487.1 L735.9 485.2 L736.9 485.0 L738.3 487.1 L739.5 492.6 L741.6 494.0 L742.5 493.0 L744.5 492.7 L747.4 489.8 L745.7 484.7 L747.9 480.6 L750.3 479.5 L751.3 477.8 L750.6 471.8 L751.6 471.6 L752.6 473.0 L753.8 473.4 L756.4 470.9 L757.7 471.7 L757.7 472.8 L759.3 472.8 L762.8 484.5 L761.8 485.5 L761.9 489.3 L762.7 490.8 L762.2 494.4 L764.5 496.5 L766.5 502.8 L768.7 517.3 L767.5 518.3 L768.7 522.8 L770.5 521.8 L771.1 518.6 L771.8 518.1 L775.6 520.6 L777.0 523.2 L777.9 521.8 L779.5 522.7 L779.7 519.6 L781.1 519.2 L780.9 516.5 L783.7 516.8 L783.6 515.2 L785.0 514.5 L784.5 509.6 L783.1 508.2 L782.5 505.8 L783.3 504.9 L782.0 501.3 L782.6 496.7 L783.7 495.1 L783.0 491.7 L784.6 490.9 L786.2 492.4 L787.6 492.3 L790.1 488.4 L789.5 482.2 L790.6 481.0 L790.4 477.6 L791.5 472.2 L790.4 469.5 L790.2 464.8 L788.6 463.0 L788.7 460.3 L790.7 460.4 L792.2 463.6 L793.4 464.3 L796.0 463.5 L796.9 462.3 L799.9 462.7 L801.4 464.7 L805.1 464.1 L809.3 466.0 L810.0 467.4 L811.1 467.1 L815.7 453.0 L817.2 451.2 L818.0 448.3 L821.5 443.2 L821.8 441.7 L823.4 441.0 L824.2 437.2 L826.3 434.4 L826.0 433.4 L827.0 431.9 L827.1 428.5 L822.8 426.2 L823.9 420.9 L825.2 419.9 L825.6 418.5 L828.9 417.6 L829.8 415.8 L831.4 415.5 L832.4 412.3 L835.5 409.5 L834.8 404.8 L837.0 403.3 L839.1 399.7 L837.4 398.7 L837.8 390.5 L836.2 388.0 L838.3 384.6 L838.4 383.3 L840.5 381.6 L842.3 382.3 L845.6 381.0 L848.3 377.2 L850.8 377.2 L852.4 374.9 L854.0 375.2 L856.1 371.3 L858.1 371.1 L860.2 369.6 L862.5 365.7 L868.0 363.0 L874.2 362.1 L875.9 362.5 L878.5 360.3 L882.6 360.5 L885.6 363.8 L885.1 365.6 L888.3 366.6 L890.5 368.3 L892.8 368.5 L893.4 366.9 L889.0 361.6 L886.5 357.3 L887.1 355.4 L886.1 352.8 L887.0 351.4 L888.2 351.0 L889.3 348.8 L891.4 348.6 L891.9 347.3 L895.9 343.6 L897.0 343.2 L897.6 344.3 L899.4 344.1 L899.1 341.3 L900.1 340.4 L897.6 337.9 L897.9 335.8 L899.8 334.6 L897.2 332.6 L893.6 331.5 L891.3 329.4 L888.5 330.9 L886.0 328.9 L882.9 329.2 L882.2 327.9 L879.6 326.4 L874.0 327.8 L872.6 329.3 L870.0 328.5 L869.6 327.4 L871.6 325.4 L870.9 323.7 L872.4 323.4 L875.0 320.8 L874.9 319.4 L877.5 318.4 L878.3 317.0 L876.2 313.4 L875.7 310.8 L874.6 310.1 L875.8 307.2 L873.8 308.4 L870.9 308.7 L867.7 311.9 L866.1 311.9 L866.5 310.1 L865.6 307.3 L868.5 304.7 L870.9 304.3 L872.2 301.6 L871.4 300.7 L869.3 302.3 L867.9 302.2 L865.5 297.2 L863.6 295.1 L860.3 297.6 L858.2 297.4 L856.2 298.8 L855.3 298.5 L852.4 301.3 L850.4 301.5 L848.7 303.2 L848.9 304.8 L847.8 305.2 L846.7 308.1 L845.2 308.5 L841.3 307.7 L840.9 306.2 L837.6 306.0 L834.2 304.3 L833.5 304.8 L829.0 304.1 L826.1 300.1 L823.9 298.8 L821.8 302.5 L818.5 302.6 L816.4 304.9 L814.5 305.0 L812.5 307.1 L810.8 311.2 L806.5 314.6 L806.5 316.7 L804.9 319.7 L802.4 318.8 L800.7 319.9 L799.3 319.4 L796.0 320.4 L792.8 319.6 L788.4 321.1 L786.8 325.1 L784.3 327.2 L785.5 328.5 L785.2 330.4 L779.9 331.5 L779.7 333.0 L778.3 332.7 L775.2 335.0 L773.8 334.6 L770.5 337.2 L770.1 338.9 L772.0 341.5 L767.2 346.2 L765.4 345.9 L764.2 346.8 L763.2 346.3 L760.5 347.6 L758.9 345.1 L757.4 345.3 L753.4 348.3 L751.5 348.0 L750.2 349.3 L748.8 349.4 L747.2 346.8 L744.0 346.6 L742.9 345.3 L739.5 345.6 L740.0 346.6 L741.7 347.3 L741.6 349.7 L740.0 351.6 L739.9 353.7 L742.4 356.8 L743.4 356.4 L745.7 357.4 L751.8 357.1 L753.0 358.5 L754.1 362.6 L753.0 363.7 L753.8 364.8 L752.6 366.4 L752.5 368.2 L753.1 370.1 L754.6 371.6 L755.1 373.7 L754.6 375.6 L753.4 376.4 L751.6 376.1 L749.1 374.3 L747.9 374.4 L746.5 376.2 L744.2 377.5 L741.6 377.2 L738.0 378.2 L735.5 376.8 L733.7 378.5 L727.0 377.3 L725.8 378.4 L716.5 378.8 L712.5 377.8 L708.4 374.7 L706.9 374.9 L705.5 376.3 L703.3 376.1 L702.0 378.7 L700.6 379.4 L695.9 380.2 L693.4 379.8 L692.9 380.6 L691.2 380.7 L688.1 379.6 L687.3 378.4 L684.2 377.3 L682.6 377.7 L680.3 376.0 L676.7 377.2 L673.3 377.4 L672.1 374.9 L670.5 373.6 L669.0 373.9 L668.3 372.4 L666.6 371.7 L666.2 368.4 L663.6 366.9 L664.4 364.1 L667.0 363.2 L667.6 361.7 L664.7 359.3 L663.8 357.3 L663.6 354.4 L665.6 351.1 L665.8 346.7 L666.5 345.8 L665.1 340.4 L663.0 338.6 L660.5 338.3 L659.4 336.8 L657.2 339.3 L655.6 339.4 L653.3 341.3 L648.0 341.9 L647.3 342.5 L646.2 342.0 L645.5 343.6 L647.7 345.6 L647.7 347.4 L643.7 356.3 L644.4 358.1 L643.6 360.3 L644.1 361.3 L642.2 368.5 L643.5 370.6 L645.7 372.2 L647.6 378.8 L646.9 382.6 L645.4 385.2 L645.1 388.8 L642.9 390.7 L640.7 389.7 L639.7 387.7 L638.0 388.6 L636.8 388.0 L635.6 389.8 L633.6 389.0 L631.8 390.4 L627.9 388.9 L625.7 389.5 L624.3 391.1 L623.0 391.0 L622.4 389.9 L619.4 389.9 L617.7 388.7 L617.0 384.4 L616.3 384.4 L615.4 386.1 L613.2 386.5 L611.8 388.2 L610.4 388.8 L608.8 388.3 L607.6 389.2 L603.3 387.0 L602.5 385.9 L597.1 383.5 L593.6 384.0 L588.5 381.9 L584.1 384.2 L580.7 382.7 L580.1 381.5 L580.1 377.2 L577.4 375.6 L573.5 378.1 L571.5 378.1 L569.5 379.4 L566.3 379.0 L565.3 377.6 L565.5 375.7 L562.0 376.0 L559.3 372.9 L555.3 371.1 L553.4 371.4 L551.0 370.5 L550.7 369.7 L551.7 367.3 L551.8 364.9 L550.0 361.4 L541.0 359.9 L539.9 357.8 L537.4 357.0 L537.1 355.8 L535.9 355.6 L534.1 358.1 L531.1 357.9 L529.3 358.5 L529.4 359.8 L528.7 360.4 L522.4 357.3 L516.2 356.9 L516.0 360.3 L513.8 361.4 L510.7 357.7 L506.5 357.9 L504.4 357.3 L503.6 356.3 L499.0 356.2 L498.5 354.9 L498.9 353.6 L497.5 349.6 L490.5 350.8 L483.9 345.7 L481.5 344.9 L480.1 343.2 L477.3 343.0 L475.9 345.0 L475.0 345.1 L470.0 341.3 L464.2 338.5 L463.0 335.9 L459.8 335.6 L457.3 332.0 L456.6 329.6 L453.1 328.9 L450.8 326.7 L448.6 326.5 L448.3 325.4 L446.5 325.2 L444.4 323.3 L442.7 323.0 L441.7 320.9 L440.3 321.0 L439.0 319.4 L437.2 320.1 L436.7 321.7 L433.6 321.1 L430.3 317.3 L425.3 314.7 L425.0 312.3 L426.6 310.3 L427.4 306.6 L428.3 305.7 L429.8 306.0 L430.9 305.2 L430.5 304.0 L431.5 303.5 L432.1 299.8 L430.1 296.3 L431.7 295.5 L431.6 294.5 L434.6 291.0 L434.8 289.2 L433.9 288.5 L433.6 286.4 L434.8 284.8 L436.9 284.7 L438.6 282.9 L439.7 279.7 L441.9 279.6 L443.6 278.2 L445.5 275.4 L447.5 274.0 L447.2 272.8 L448.3 271.2 L451.3 270.7 L451.0 269.9 L445.6 268.1 L443.4 265.5 L439.6 262.9 L437.7 263.5 L431.7 260.2 L429.5 260.0 L428.6 257.0 L429.9 254.7 L429.5 253.9 L427.7 252.5 L425.8 253.2 L424.6 251.4 L421.0 249.7 L419.4 247.1 L416.4 246.3 L411.9 248.1 L410.8 247.4 L409.6 245.1 L407.5 245.1 L406.4 242.7 L404.2 241.6 L402.5 238.0 L402.8 237.0 L399.5 232.4 L397.5 231.3 L395.7 234.8 L394.1 235.6 L393.6 237.1 L392.6 237.1 L390.3 233.6 L390.4 232.0 L388.0 230.0 L391.3 226.3 L390.0 224.3 L388.7 224.1 L388.5 222.0 L387.5 221.0 L389.7 214.4 L387.7 213.1 L386.4 210.9 L384.9 210.3 L384.8 207.3 L381.3 205.7 L381.3 203.2 L382.8 200.8 L380.9 199.5 L380.4 196.7 L383.3 194.6 L384.5 194.3 L385.7 195.0 L386.9 193.1 L389.3 192.9 L390.3 194.3 L389.9 196.3 L391.2 200.1 L392.2 200.2 L395.7 203.4 L396.6 202.1 L399.3 201.6 L400.1 199.0 L402.6 197.9 L405.0 195.3 L406.6 195.8 L406.9 197.1 L408.2 197.2 L413.2 190.5 L406.1 181.8 L406.8 180.7 L406.4 178.8 L408.5 173.5 L402.9 172.2 L398.9 172.4 L395.8 170.9 L394.8 169.3 L393.8 161.9 L397.7 161.3 L398.9 161.8 L398.3 159.3 L397.5 159.6 L396.7 158.9 L397.7 156.6 L396.4 156.2 L393.6 149.7 L394.4 148.3 L396.4 147.4 L398.6 148.4 L400.8 147.0 L407.9 148.3 L407.6 146.3 L409.6 144.5 L409.9 142.4 L412.1 141.0 L410.6 133.5 L412.6 132.8 L417.8 133.0 L418.3 131.8 L417.1 130.3 L417.7 128.0 L419.6 126.2 L421.8 126.5 L425.1 125.5 L425.6 121.0 L428.1 116.2 L428.4 110.3 L429.7 108.2 L431.2 101.0 L432.4 100.1 L431.3 95.4 L426.4 93.0 L423.7 87.9 L422.6 87.6 L419.7 89.5 L416.0 88.9 L409.9 86.0 L407.7 85.7 L406.6 83.0 L404.0 82.5 L401.8 83.0 L401.2 86.0 L399.8 87.7 L396.7 87.4 L394.8 85.8 L391.5 87.1 L388.3 86.6 L386.7 87.1 L383.1 89.8 L380.0 89.6 L378.9 91.3 L376.3 91.5 L375.6 93.8 L374.0 93.4 L372.4 97.3 L367.8 95.6 L366.0 99.6 L363.5 98.6 L362.4 99.1 L361.2 98.3 L360.5 99.8 L351.8 99.8 L350.6 98.5 L350.9 97.6 L353.1 98.5 L354.6 98.0 L353.2 94.3 L351.1 91.8 L349.4 92.1 L346.3 91.3 L344.4 89.0 L341.5 89.8 L339.4 89.5 L335.9 87.2 L333.9 83.9 L334.8 82.0 L336.0 81.5 L333.6 79.3 L331.5 76.0 L329.6 76.5 L327.1 75.0 L325.6 71.6 L323.3 69.9 L320.8 70.3 L316.0 66.1 L313.2 65.6 L307.6 62.8 L303.5 56.7 L299.5 54.7 L298.7 52.0 L297.9 51.4 L298.2 49.6 L296.2 48.9 L295.9 46.4 L292.2 46.9 L289.6 49.9 L287.0 49.0 L284.1 50.7 L282.1 47.3 L279.4 47.2 L278.1 45.5 L275.4 46.6 L274.7 48.9 L270.9 48.5 L266.4 51.8 L263.8 51.4 L262.9 53.6 L260.7 54.5 L258.5 53.8 L257.2 52.3 L250.7 51.1 L250.4 52.1 L251.6 53.9 L255.7 55.8 L256.5 57.3 L256.0 58.3 L253.9 57.8 L249.1 58.6 L243.7 56.9 L240.1 58.1 L237.9 58.3 L237.2 57.8 L234.1 59.0 L234.5 61.9 L233.3 63.9 L231.7 64.7 L231.2 66.2 L228.4 67.3 L228.3 69.4 L224.0 72.7 L220.6 73.3 L218.9 78.5 L218.9 79.7 L220.4 81.3 L218.9 84.8 L223.3 87.9 L227.3 86.2 L228.7 86.4 L229.3 87.4 L234.5 86.5 L235.7 87.9 L235.4 91.7 L240.1 95.1 L241.8 95.6 L242.8 96.9 L249.3 96.8 L253.1 98.4 L253.4 100.2 L250.9 103.8 L251.7 108.6 L254.0 107.7 L262.1 111.5 L261.0 114.2 L261.7 115.3 L260.8 116.1 L261.0 117.7 L260.0 119.5 L257.0 121.8 L252.9 122.6 L251.8 123.5 L249.9 126.8 L250.5 127.8 L249.5 129.6 L244.3 129.8 L243.5 131.6 L242.7 137.2 L243.5 137.7 L245.1 141.7 L245.8 149.0 L247.8 152.7 L247.0 156.4 L248.1 158.4 L247.1 159.7 L247.1 161.4 L248.6 162.9 L248.6 164.4 L248.4 166.8 L247.0 169.9 L248.3 173.7 L249.7 175.3 L249.0 179.0 L251.7 179.6 L253.1 181.8 L253.0 182.7 L253.8 182.8 L254.7 181.7 L257.8 182.4 L258.8 184.0 L263.8 185.6 L265.0 186.9 L267.1 187.6 L269.0 189.7 L271.3 188.9 L273.0 190.2 L276.7 190.0 L277.5 193.2 L276.5 194.8 L277.8 198.8 L282.8 198.8 L285.4 199.8 L287.5 198.9 L289.3 199.4 L290.1 201.3 L291.4 201.0 L295.5 203.8 L296.3 206.8 L295.2 207.3 L295.0 209.1 L293.5 211.0 L291.8 210.6 L291.3 211.7 L289.8 211.7 L286.6 213.3 L283.9 212.3 L282.7 212.9 L281.0 215.6 L279.5 216.3 L278.5 215.7 L278.2 216.7 L275.5 218.1 L273.3 223.3 L275.6 228.3 L275.0 230.6 L276.6 232.0 L273.1 237.7 L273.0 242.1 L274.4 244.1 L273.6 246.6 L267.8 251.3 L266.2 255.1 L262.5 258.3 L260.8 261.0 L257.2 263.7 L257.2 264.6 L255.6 266.1 L257.9 269.9 L257.9 272.3 L253.4 276.0 L242.4 280.2 L239.2 292.2 L230.2 308.7 L214.9 317.1 L212.6 320.2 L209.4 329.6 L204.2 334.4 L202.4 337.1 L201.3 342.2 L195.0 344.9 L184.4 345.7 L173.8 350.2 L170.2 349.4 L168.2 345.8 L168.0 343.5 L165.0 340.2 L162.7 339.8 L159.6 340.6 L153.9 346.0 L150.1 354.5 L147.8 356.2 L145.8 359.3 L140.4 364.0 L137.7 367.4 L136.0 373.4 L135.5 377.7 L136.1 379.4 L144.5 384.2 L151.4 384.0 L154.1 385.4 L154.3 395.0 L151.8 400.5 L152.5 404.6 L157.4 411.5 L160.5 412.5 L166.3 411.3 L167.8 411.6 L168.0 420.9 L174.1 428.4 L175.5 434.6 L179.5 442.1 L177.0 444.7 L177.2 449.4 L179.9 449.7 L180.1 450.9 L178.4 452.2 L175.9 452.3 L172.4 455.7 L167.7 456.0 L165.6 455.0 L165.4 452.6 L166.3 450.7 L165.3 450.1 L152.6 454.2 L150.9 457.2 L149.0 457.8 L142.1 457.5 L138.7 454.4 L135.9 455.1 L130.7 454.4 L127.7 455.6 L124.6 454.7 L122.1 455.9 L120.8 454.4 L118.8 456.7 L117.9 456.2 L117.5 453.5 L116.0 453.9 L115.2 463.6 L109.3 464.0 L108.0 462.9 L105.1 463.2 L104.1 465.0 L102.6 465.1 L101.7 467.2 L100.7 467.6 L100.8 469.6 L100.1 470.8 L101.3 472.7 Z" fill="none" stroke="#C5A46D" stroke-width="2.1" stroke-linecap="round" stroke-linejoin="round" vector-effect="non-scaling-stroke"/>
</svg>
